<?xml version="1.0" encoding="utf-8" standalone="no"?>
<!DOCTYPE svg PUBLIC "-//W3C//DTD SVG 1.1//EN" "http://www.w3.org/Graphics/SVG/1.1/DTD/svg11.dtd">
<svg version="1.1" xmlns="http://www.w3.org/2000/svg" xmlns:xlink="http://www.w3.org/1999/xlink" xml:space="preserve">

	<symbol id="o_logo" viewBox="0 0 118.406 106.774">
		<path clip-path="url(#SVGID_2_)" d="M35.149,36.538c3.595-6.11,8.446-11.79,14.012-16.189c7.031-5.556,15.531-7.033,24.331-5.637
			c18.178,2.885,31.871,21.504,30.691,39.638c-1.236,19.028-20.443,33.497-37.772,37.268c-17.677,3.845-36.863-3.595-46.124-19.392
			c-5.204-8.875-7.501-19.968-5.407-30.118c2.259-10.956,9.101-20.006,16.139-28.397c5.824-6.945-4.152-17.022-10.022-10.022
			C13.069,13.142,5.508,23.092,2.018,35.123c-3.516,12.12-2.284,25.396,2.501,36.981c9.419,22.805,33.143,36.809,57.699,34.402
			c23.806-2.333,48.474-19.154,54.749-43.117c6.29-24.02-8.739-51.122-31.56-60.029C73.293-1.369,57.772-1.408,46.336,5.184
			c-9.608,5.54-17.831,14.695-23.425,24.201C18.275,37.263,30.521,44.403,35.149,36.538"/>
	</symbol>
	<symbol id="umbrella"  viewBox="0 0 108.41 98.5">
		<g>
			<defs>
				<rect id="SVGID_1_" width="108.41" height="98.5"/>
			</defs>
			<clipPath id="SVGID_2_">
				<use xlink:href="#SVGID_1_"  overflow="visible"/>
			</clipPath>
			<line clip-path="url(#SVGID_2_)" stroke-width="4" x1="53.286" y1="4.428" x2="53.286" y2="0"/>
		</g>
		<line stroke-width="4" x1="53.286" y1="81.095" x2="53.286" y2="41.761"/>
		<g>
			<defs>
				<rect id="SVGID_3_" width="108.41" height="98.5"/>
			</defs>
			<clipPath id="SVGID_4_">
				<use xlink:href="#SVGID_3_"  overflow="visible"/>
			</clipPath>
			<path clip-path="url(#SVGID_4_)" stroke-width="4" d="M65.286,90.5c0,3.314-2.688,6-6,6
				c-3.314,0-6-2.686-6-6v-5.2"/>
			<path clip-path="url(#SVGID_4_)" stroke-width="4" d="M8.098,44.096c2.54,0,4.729,1.417,5.885,3.491
				c2.285-2.93,5.837-4.82,9.839-4.82c5.046,0,9.378,3.003,11.344,7.315c4.578-4.521,10.864-7.315,17.807-7.315
				c0.205,0,0.4,0.025,0.605,0.029c0.37-0.015,0.739-0.029,1.114-0.029c6.94,0,13.225,2.794,17.804,7.311
				c1.966-4.311,6.302-7.311,11.348-7.311c4,0,7.553,1.89,9.835,4.82c1.158-2.074,3.345-3.491,5.888-3.491
				c2.803,0,5.206,1.705,6.234,4.131c0.023,0.006,0.047,0.01,0.068,0.014C100.966,24.024,79.56,5.792,53.896,5.792
				c-25.601,0-46.962,18.138-51.938,42.262C3.025,45.724,5.367,44.096,8.098,44.096z"/>
			<path clip-path="url(#SVGID_4_)" stroke-width="4" d="M23.821,42.767
				c5.047,0,9.379,3.003,11.345,7.315c4.578-4.521,10.863-7.315,17.806-7.315c0.205,0,0.401,0.025,0.606,0.029
				c0.369-0.015,0.739-0.029,1.113-0.029c6.94,0,13.226,2.794,17.804,7.311c1.966-4.311,6.302-7.311,11.347-7.311
				c4,0,7.554,1.891,9.836,4.82c0.028-0.05,0.065-0.096,0.095-0.146C89.76,23.626,73.437,5.792,53.896,5.792
				c-19.58,0-35.929,17.899-39.901,41.783C16.279,44.653,19.824,42.767,23.821,42.767z"/>
			<path clip-path="url(#SVGID_4_)" stroke-width="4" d="M72.556,49.972
				c-1.446-24.028-8.649-42.568-17.5-44.069c-0.002,0-0.003,0-0.004-0.001c-0.166-0.028-0.332-0.052-0.499-0.068
				C54.357,5.813,54.16,5.8,53.963,5.797c-0.023-0.001-0.045-0.005-0.067-0.005c-0.003,0-0.005,0.001-0.008,0.001
				c-0.006,0-0.012-0.001-0.018-0.001c-0.048,0-0.096,0.008-0.145,0.01c-0.167,0.005-0.334,0.013-0.498,0.031
				c-9.086,0.853-16.543,19.645-18.016,44.139c0.019,0.036,0.045,0.068,0.061,0.105c4.562-4.502,10.822-7.292,17.735-7.309
				c0.192,0.002,1.559,0.002,1.752,0c6.913,0.017,13.173,2.807,17.734,7.309C72.511,50.04,72.536,50.008,72.556,49.972z"/>
		</g>
	</symbol>
	<symbol id="money" viewBox="0 0 98.335 92.722">
		<g>
			<defs>
				<rect id="SVGID_1_" y="0" width="98.334" height="92.722"/>
			</defs>
			<clipPath id="SVGID_2_">
				<use xlink:href="#SVGID_1_"  overflow="visible"/>
			</clipPath>
			<path clip-path="url(#SVGID_2_)" stroke-width="4" d="M29.127,35.603
				C29.127,17.045,44.172,2,62.731,2c18.556,0,33.604,15.046,33.604,33.603"/>
			<path clip-path="url(#SVGID_2_)" stroke-width="4" d="M44.441,47.015
				c-0.744-3.563-1.15-7.405-1.15-11.412C43.291,17.046,51.996,2,62.73,2c10.729,0,19.431,15.046,19.431,33.603
				c0,4.183-0.443,8.189-1.251,11.885"/>
			<path clip-path="url(#SVGID_2_)" stroke-width="4" d="M81.172,63.698
				c9.133-6.008,15.163-16.349,15.163-28.096C96.335,17.046,81.287,2,62.73,2v44.789"/>
			<path clip-path="url(#SVGID_2_)" stroke-width="4" d="M29.127,35.603
				c0,4.176,0.796,8.156,2.184,11.844h62.835c1.392-3.688,2.188-7.667,2.188-11.844c0-4.176-0.797-8.158-2.188-11.847H31.315
				C29.923,27.445,29.127,31.427,29.127,35.603z"/>
			<rect x="2" y="47.453" clip-path="url(#SVGID_2_)" stroke-width="4" width="78.75" height="43.269"/>
			<path clip-path="url(#SVGID_2_)" stroke-width="4" d="M13.549,83.773
				c-0.677-2.177-2.41-3.864-4.602-4.484v-20.5c2.153-0.611,3.873-2.262,4.57-4.389h55.715c0.698,2.127,2.417,3.777,4.569,4.389
				v20.502c-2.192,0.618-3.923,2.305-4.6,4.482H13.549z"/>
			<circle clip-path="url(#SVGID_2_)" stroke-width="4" cx="41.375" cy="69.087" r="6.818"/>
			<line clip-path="url(#SVGID_2_)" stroke-width="4" x1="54.432" y1="69.087" x2="64.96" y2="69.087"/>
			<line clip-path="url(#SVGID_2_)" stroke-width="4" x1="28.317" y1="69.087" x2="17.79" y2="69.087"/>
		</g>
	</symbol>
	<symbol id="card" viewBox="0 0 67.505 99.672">
		<g>
			<defs>
				<rect id="SVGID_1_" width="67.504" height="99.672"/>
			</defs>
			<clipPath id="SVGID_2_">
				<use xlink:href="#SVGID_1_"  overflow="visible"/>
			</clipPath>
			<path clip-path="url(#SVGID_2_)" stroke-width="4" d="M35.602,54.326l3.053,3.053
				c2.76,2.758,7.232,2.758,9.99,0l2.499-2.499l-3.74-3.739"/>
			<path clip-path="url(#SVGID_2_)" stroke-width="4" d="M38.193,51.053h7.667h1.638
				c3.902,0,7.065-3.162,7.065-7.064V42.07"/>
			<path clip-path="url(#SVGID_2_)" stroke-width="4" d="M12.197,42.073l-7.693,7.491
				c-1.201,2.081-0.376,3.538,0.256,7.374l4.711,29.754"/>
			<path clip-path="url(#SVGID_2_)" stroke-width="4" d="M26.193,42.69H5.261
				C3.466,42.69,2,41.224,2,39.429V5.264C2,3.467,3.466,2,5.261,2h56.981c1.795,0,3.262,1.468,3.262,3.264v34.165
				c0,1.795-1.467,3.262-3.262,3.262H38.86"/>
			<line clip-path="url(#SVGID_2_)" stroke-width="4" x1="6.949" y1="25.131" x2="17.342" y2="25.131"/>
			<line clip-path="url(#SVGID_2_)" stroke-width="4" x1="6.949" y1="33.152" x2="23.255" y2="33.152"/>

				<line clip-path="url(#SVGID_2_)" stroke-width="4" x1="21.214" y1="25.131" x2="31.607" y2="25.131"/>
			<line clip-path="url(#SVGID_2_)" stroke-width="4" x1="35.48" y1="25.131" x2="45.873" y2="25.131"/>

				<line clip-path="url(#SVGID_2_)" stroke-width="4" x1="49.746" y1="25.131" x2="61.139" y2="25.131"/>
			<line clip-path="url(#SVGID_2_)" stroke-width="4" x1="63.594" y1="18.21" x2="3.593" y2="18.21"/>
			<line clip-path="url(#SVGID_2_)" stroke-width="4" x1="3.593" y1="10.21" x2="63.594" y2="10.21"/>
			<path clip-path="url(#SVGID_2_)" stroke-width="4" d="M21.47,96.55
				c4.77-3.45,9.217-7.005,11.711-15.344c2.439-8.153,2.569-14.95,0.62-20.391l6.591-22.02c0.776-2.599-0.699-5.338-3.3-6.115
				l-1.882-0.563c-2.6-0.778-5.339,0.699-6.118,3.298L17.7,63.032"/>
			<polyline clip-path="url(#SVGID_2_)" stroke-width="4" points="3.76,99.672 3.76,85.866
				42.384,85.866 42.384,99.672 	"/>
			<polyline clip-path="url(#SVGID_2_)" stroke-width="4" points="3.76,99.672 3.76,85.866
				42.384,85.866 42.384,99.672 	"/>

				<line clip-path="url(#SVGID_2_)" stroke-width="4" x1="35.595" y1="91.133" x2="35.595" y2="94.799"/>
		</g>
	</symbol>
	<symbol id="fb" viewBox="0 0 32 32">
		<path clip-path="url(#SVGID_2_)" d="M30.667,0H1.333C0.597,0,0,0.597,0,1.333v29.334C0,31.403,0.597,32,1.333,32H17
			V20h-4v-5h4v-4c0-4.133,2.617-6.167,6.304-6.167c1.766,0,3.284,0.132,3.726,0.19v4.32l-2.557,0.001
			c-2.005,0-2.473,0.953-2.473,2.351V15h5l-1,5h-4l0.08,12h8.587C31.402,32,32,31.403,32,30.667V1.333C32,0.597,31.402,0,30.667,0"/>
	</symbol>
	<symbol id="google" viewBox="0 0 32 29.714">
		<path clip-path="url(#SVGID_2_)" d="M14.659,1.406c0.254,0.153,0.539,0.375,0.857,0.667
			c0.305,0.304,0.603,0.679,0.896,1.123c0.279,0.419,0.526,0.913,0.742,1.485c0.178,0.571,0.268,1.237,0.268,1.998
			c-0.024,1.397-0.344,2.513-0.958,3.351c-0.302,0.406-0.622,0.78-0.958,1.123c-0.374,0.343-0.771,0.692-1.193,1.047
			c-0.241,0.241-0.464,0.514-0.669,0.819c-0.241,0.317-0.361,0.685-0.361,1.104c0,0.406,0.123,0.742,0.371,1.009
			c0.209,0.254,0.414,0.476,0.612,0.666l1.372,1.085c0.852,0.673,1.6,1.415,2.243,2.228c0.605,0.824,0.921,1.903,0.945,3.236
			c0,1.891-0.865,3.566-2.596,5.025c-1.795,1.51-4.385,2.291-7.769,2.342c-2.833-0.026-4.948-0.607-6.345-1.748
			C0.706,26.902,0,25.628,0,24.146c0-0.722,0.229-1.525,0.688-2.412c0.445-0.888,1.251-1.666,2.417-2.338
			c1.31-0.722,2.686-1.202,4.128-1.443c1.428-0.203,2.613-0.316,3.557-0.342c-0.292-0.37-0.552-0.767-0.78-1.188
			c-0.266-0.408-0.399-0.899-0.399-1.474c0-0.344,0.051-0.631,0.152-0.861c0.089-0.242,0.171-0.466,0.247-0.67
			c-0.459,0.051-0.892,0.077-1.299,0.077c-2.153-0.026-3.794-0.679-4.923-1.961c-1.182-1.193-1.772-2.582-1.772-4.168
			c0-1.916,0.837-3.655,2.511-5.216c1.15-0.913,2.344-1.51,3.584-1.789C9.338,0.121,10.488,0,11.562,0h8.089l-2.498,1.407H14.659z
			 M16.221,23.873c0-0.99-0.335-1.854-1.004-2.589c-0.709-0.699-1.816-1.556-3.323-2.571c-0.257-0.025-0.56-0.038-0.908-0.038
			c-0.206-0.024-0.734,0-1.584,0.076c-0.837,0.115-1.693,0.299-2.569,0.552c-0.206,0.077-0.496,0.191-0.869,0.343
			c-0.374,0.165-0.753,0.4-1.14,0.705c-0.373,0.317-0.689,0.71-0.946,1.181c-0.297,0.495-0.445,1.092-0.445,1.79
			c0,1.371,0.644,2.5,1.932,3.389c1.223,0.889,2.898,1.346,5.022,1.371c1.907-0.025,3.362-0.431,4.366-1.218
			C15.731,26.087,16.221,25.091,16.221,23.873 M10.582,12.433c1.065-0.038,1.952-0.407,2.662-1.106
			c0.342-0.496,0.562-1.005,0.66-1.526c0.058-0.521,0.088-0.96,0.088-1.316c0-1.539-0.408-3.091-1.224-4.655
			c-0.382-0.75-0.885-1.361-1.51-1.831c-0.637-0.445-1.37-0.68-2.199-0.706C7.962,1.318,7.05,1.745,6.325,2.57
			C5.711,3.436,5.418,4.402,5.445,5.469c0,1.412,0.428,2.881,1.284,4.407c0.414,0.712,0.949,1.316,1.605,1.812
			C8.989,12.185,9.738,12.433,10.582,12.433"/>
		<polygon clip-path="url(#SVGID_2_)" points="32,13.857 28,13.857 28,9.857 26,9.857 26,13.857 22,13.857 22,15.857
			26,15.857 26,19.857 28,19.857 28,15.857 32,15.857 	"/>
	</symbol>

</svg>
