<?xml version="1.0" encoding="utf-8"?>
<!-- Generator: Adobe Illustrator 16.0.0, SVG Export Plug-In . SVG Version: 6.00 Build 0)  -->
<!DOCTYPE svg PUBLIC "-//W3C//DTD SVG 1.1//EN" "http://www.w3.org/Graphics/SVG/1.1/DTD/svg11.dtd">
<svg version="1.1" id="Layer_1" xmlns="http://www.w3.org/2000/svg" xmlns:xlink="http://www.w3.org/1999/xlink" x="0px" y="0px"
	 width="67.505px" height="99.672px" viewBox="0 0 67.505 99.672" enable-background="new 0 0 67.505 99.672" xml:space="preserve">
<g>
	<defs>
		<rect id="SVGID_1_" width="67.504" height="99.672"/>
	</defs>
	<clipPath id="SVGID_2_">
		<use xlink:href="#SVGID_1_"  overflow="visible"/>
	</clipPath>
	<path clip-path="url(#SVGID_2_)" fill="none" stroke="#FFFFFF" stroke-width="4" d="M35.602,54.326l3.053,3.053
		c2.76,2.758,7.232,2.758,9.99,0l2.499-2.499l-3.74-3.739"/>
	<path clip-path="url(#SVGID_2_)" fill="none" stroke="#FFFFFF" stroke-width="4" d="M38.193,51.053h7.667h1.638
		c3.902,0,7.065-3.162,7.065-7.064V42.07"/>
	<path clip-path="url(#SVGID_2_)" fill="none" stroke="#FFFFFF" stroke-width="4" d="M12.197,42.073l-7.693,7.491
		c-1.201,2.081-0.376,3.538,0.256,7.374l4.711,29.754"/>
	<path clip-path="url(#SVGID_2_)" fill="none" stroke="#FFFFFF" stroke-width="4" d="M26.193,42.69H5.261
		C3.466,42.69,2,41.224,2,39.429V5.264C2,3.467,3.466,2,5.261,2h56.981c1.795,0,3.262,1.468,3.262,3.264v34.165
		c0,1.795-1.467,3.262-3.262,3.262H38.86"/>
	<line clip-path="url(#SVGID_2_)" fill="none" stroke="#FFFFFF" stroke-width="4" x1="6.949" y1="25.131" x2="17.342" y2="25.131"/>
	<line clip-path="url(#SVGID_2_)" fill="none" stroke="#FFFFFF" stroke-width="4" x1="6.949" y1="33.152" x2="23.255" y2="33.152"/>
	
		<line clip-path="url(#SVGID_2_)" fill="none" stroke="#FFFFFF" stroke-width="4" x1="21.214" y1="25.131" x2="31.607" y2="25.131"/>
	<line clip-path="url(#SVGID_2_)" fill="none" stroke="#FFFFFF" stroke-width="4" x1="35.48" y1="25.131" x2="45.873" y2="25.131"/>
	
		<line clip-path="url(#SVGID_2_)" fill="none" stroke="#FFFFFF" stroke-width="4" x1="49.746" y1="25.131" x2="61.139" y2="25.131"/>
	<line clip-path="url(#SVGID_2_)" fill="none" stroke="#FFFFFF" stroke-width="4" x1="63.594" y1="18.21" x2="3.593" y2="18.21"/>
	<line clip-path="url(#SVGID_2_)" fill="none" stroke="#FFFFFF" stroke-width="4" x1="3.593" y1="10.21" x2="63.594" y2="10.21"/>
	<path clip-path="url(#SVGID_2_)" fill="none" stroke="#FFFFFF" stroke-width="4" d="M21.47,96.55
		c4.77-3.45,9.217-7.005,11.711-15.344c2.439-8.153,2.569-14.95,0.62-20.391l6.591-22.02c0.776-2.599-0.699-5.338-3.3-6.115
		l-1.882-0.563c-2.6-0.778-5.339,0.699-6.118,3.298L17.7,63.032"/>
	<polyline clip-path="url(#SVGID_2_)" fill="none" stroke="#FFFFFF" stroke-width="4" points="3.76,99.672 3.76,85.866 
		42.384,85.866 42.384,99.672 	"/>
	<polyline clip-path="url(#SVGID_2_)" fill="none" stroke="#FFFFFF" stroke-width="4" points="3.76,99.672 3.76,85.866 
		42.384,85.866 42.384,99.672 	"/>
	
		<line clip-path="url(#SVGID_2_)" fill="none" stroke="#FFFFFF" stroke-width="4" x1="35.595" y1="91.133" x2="35.595" y2="94.799"/>
</g>
</svg>
