<?xml version="1.0" encoding="utf-8"?>
<!-- Generator: Adobe Illustrator 16.0.0, SVG Export Plug-In . SVG Version: 6.00 Build 0)  -->
<!DOCTYPE svg PUBLIC "-//W3C//DTD SVG 1.1//EN" "http://www.w3.org/Graphics/SVG/1.1/DTD/svg11.dtd">
<svg version="1.1" id="Layer_1" xmlns="http://www.w3.org/2000/svg" xmlns:xlink="http://www.w3.org/1999/xlink" x="0px" y="0px"
	 width="32px" height="32px" viewBox="0 0 32 32" enable-background="new 0 0 32 32" xml:space="preserve">
<g>
	<defs>
		<rect id="SVGID_1_" width="32" height="32"/>
	</defs>
	<clipPath id="SVGID_2_">
		<use xlink:href="#SVGID_1_"  overflow="visible"/>
	</clipPath>
	<path clip-path="url(#SVGID_2_)" fill="#444444" d="M30.667,0H1.333C0.597,0,0,0.597,0,1.333v29.334C0,31.403,0.597,32,1.333,32H17
		V20h-4v-5h4v-4c0-4.133,2.617-6.167,6.304-6.167c1.766,0,3.284,0.132,3.726,0.19v4.32l-2.557,0.001
		c-2.005,0-2.473,0.953-2.473,2.351V15h5l-1,5h-4l0.08,12h8.587C31.402,32,32,31.403,32,30.667V1.333C32,0.597,31.402,0,30.667,0"/>
</g>
</svg>
