<?xml version="1.0" encoding="utf-8"?>
<!-- Generator: Adobe Illustrator 16.0.0, SVG Export Plug-In . SVG Version: 6.00 Build 0)  -->
<!DOCTYPE svg PUBLIC "-//W3C//DTD SVG 1.1//EN" "http://www.w3.org/Graphics/SVG/1.1/DTD/svg11.dtd">
<svg version="1.1" id="Layer_1" xmlns="http://www.w3.org/2000/svg" xmlns:xlink="http://www.w3.org/1999/xlink" x="0px" y="0px"
	 width="32px" height="29.714px" viewBox="0 0 32 29.714" enable-background="new 0 0 32 29.714" xml:space="preserve">
<g>
	<defs>
		<rect id="SVGID_1_" y="0" width="32" height="29.714"/>
	</defs>
	<clipPath id="SVGID_2_">
		<use xlink:href="#SVGID_1_"  overflow="visible"/>
	</clipPath>
	<path clip-path="url(#SVGID_2_)" fill="#444444" d="M14.659,1.406c0.254,0.153,0.539,0.375,0.857,0.667
		c0.305,0.304,0.603,0.679,0.896,1.123c0.279,0.419,0.526,0.913,0.742,1.485c0.178,0.571,0.268,1.237,0.268,1.998
		c-0.024,1.397-0.344,2.513-0.958,3.351c-0.302,0.406-0.622,0.78-0.958,1.123c-0.374,0.343-0.771,0.692-1.193,1.047
		c-0.241,0.241-0.464,0.514-0.669,0.819c-0.241,0.317-0.361,0.685-0.361,1.104c0,0.406,0.123,0.742,0.371,1.009
		c0.209,0.254,0.414,0.476,0.612,0.666l1.372,1.085c0.852,0.673,1.6,1.415,2.243,2.228c0.605,0.824,0.921,1.903,0.945,3.236
		c0,1.891-0.865,3.566-2.596,5.025c-1.795,1.51-4.385,2.291-7.769,2.342c-2.833-0.026-4.948-0.607-6.345-1.748
		C0.706,26.902,0,25.628,0,24.146c0-0.722,0.229-1.525,0.688-2.412c0.445-0.888,1.251-1.666,2.417-2.338
		c1.31-0.722,2.686-1.202,4.128-1.443c1.428-0.203,2.613-0.316,3.557-0.342c-0.292-0.37-0.552-0.767-0.78-1.188
		c-0.266-0.408-0.399-0.899-0.399-1.474c0-0.344,0.051-0.631,0.152-0.861c0.089-0.242,0.171-0.466,0.247-0.67
		c-0.459,0.051-0.892,0.077-1.299,0.077c-2.153-0.026-3.794-0.679-4.923-1.961c-1.182-1.193-1.772-2.582-1.772-4.168
		c0-1.916,0.837-3.655,2.511-5.216c1.15-0.913,2.344-1.51,3.584-1.789C9.338,0.121,10.488,0,11.562,0h8.089l-2.498,1.407H14.659z
		 M16.221,23.873c0-0.99-0.335-1.854-1.004-2.589c-0.709-0.699-1.816-1.556-3.323-2.571c-0.257-0.025-0.56-0.038-0.908-0.038
		c-0.206-0.024-0.734,0-1.584,0.076c-0.837,0.115-1.693,0.299-2.569,0.552c-0.206,0.077-0.496,0.191-0.869,0.343
		c-0.374,0.165-0.753,0.4-1.14,0.705c-0.373,0.317-0.689,0.71-0.946,1.181c-0.297,0.495-0.445,1.092-0.445,1.79
		c0,1.371,0.644,2.5,1.932,3.389c1.223,0.889,2.898,1.346,5.022,1.371c1.907-0.025,3.362-0.431,4.366-1.218
		C15.731,26.087,16.221,25.091,16.221,23.873 M10.582,12.433c1.065-0.038,1.952-0.407,2.662-1.106
		c0.342-0.496,0.562-1.005,0.66-1.526c0.058-0.521,0.088-0.96,0.088-1.316c0-1.539-0.408-3.091-1.224-4.655
		c-0.382-0.75-0.885-1.361-1.51-1.831c-0.637-0.445-1.37-0.68-2.199-0.706C7.962,1.318,7.05,1.745,6.325,2.57
		C5.711,3.436,5.418,4.402,5.445,5.469c0,1.412,0.428,2.881,1.284,4.407c0.414,0.712,0.949,1.316,1.605,1.812
		C8.989,12.185,9.738,12.433,10.582,12.433"/>
	<polygon clip-path="url(#SVGID_2_)" fill="#444444" points="32,13.857 28,13.857 28,9.857 26,9.857 26,13.857 22,13.857 22,15.857 
		26,15.857 26,19.857 28,19.857 28,15.857 32,15.857 	"/>
</g>
</svg>
