<?xml version="1.0" encoding="utf-8"?>
<!-- Generator: Adobe Illustrator 16.0.0, SVG Export Plug-In . SVG Version: 6.00 Build 0)  -->
<!DOCTYPE svg PUBLIC "-//W3C//DTD SVG 1.1//EN" "http://www.w3.org/Graphics/SVG/1.1/DTD/svg11.dtd">
<svg version="1.1" id="Layer_1" xmlns="http://www.w3.org/2000/svg" xmlns:xlink="http://www.w3.org/1999/xlink" x="0px" y="0px"
	 width="98.335px" height="92.722px" viewBox="0 0 98.335 92.722" enable-background="new 0 0 98.335 92.722" xml:space="preserve">
<g>
	<defs>
		<rect id="SVGID_1_" y="0" width="98.334" height="92.722"/>
	</defs>
	<clipPath id="SVGID_2_">
		<use xlink:href="#SVGID_1_"  overflow="visible"/>
	</clipPath>
	<path clip-path="url(#SVGID_2_)" fill="none" stroke="#FFFFFF" stroke-width="4" d="M29.127,35.603
		C29.127,17.045,44.172,2,62.731,2c18.556,0,33.604,15.046,33.604,33.603"/>
	<path clip-path="url(#SVGID_2_)" fill="none" stroke="#FFFFFF" stroke-width="4" d="M44.441,47.015
		c-0.744-3.563-1.15-7.405-1.15-11.412C43.291,17.046,51.996,2,62.73,2c10.729,0,19.431,15.046,19.431,33.603
		c0,4.183-0.443,8.189-1.251,11.885"/>
	<path clip-path="url(#SVGID_2_)" fill="none" stroke="#FFFFFF" stroke-width="4" d="M81.172,63.698
		c9.133-6.008,15.163-16.349,15.163-28.096C96.335,17.046,81.287,2,62.73,2v44.789"/>
	<path clip-path="url(#SVGID_2_)" fill="none" stroke="#FFFFFF" stroke-width="4" d="M29.127,35.603
		c0,4.176,0.796,8.156,2.184,11.844h62.835c1.392-3.688,2.188-7.667,2.188-11.844c0-4.176-0.797-8.158-2.188-11.847H31.315
		C29.923,27.445,29.127,31.427,29.127,35.603z"/>
	<rect x="2" y="47.453" clip-path="url(#SVGID_2_)" fill="none" stroke="#FFFFFF" stroke-width="4" width="78.75" height="43.269"/>
	<path clip-path="url(#SVGID_2_)" fill="none" stroke="#FFFFFF" stroke-width="4" d="M13.549,83.773
		c-0.677-2.177-2.41-3.864-4.602-4.484v-20.5c2.153-0.611,3.873-2.262,4.57-4.389h55.715c0.698,2.127,2.417,3.777,4.569,4.389
		v20.502c-2.192,0.618-3.923,2.305-4.6,4.482H13.549z"/>
	<circle clip-path="url(#SVGID_2_)" fill="none" stroke="#FFFFFF" stroke-width="4" cx="41.375" cy="69.087" r="6.818"/>
	<line clip-path="url(#SVGID_2_)" fill="none" stroke="#FFFFFF" stroke-width="4" x1="54.432" y1="69.087" x2="64.96" y2="69.087"/>
	<line clip-path="url(#SVGID_2_)" fill="none" stroke="#FFFFFF" stroke-width="4" x1="28.317" y1="69.087" x2="17.79" y2="69.087"/>
</g>
</svg>
