<?xml version="1.0" encoding="utf-8"?>
<!-- Generator: Adobe Illustrator 16.0.0, SVG Export Plug-In . SVG Version: 6.00 Build 0)  -->
<!DOCTYPE svg PUBLIC "-//W3C//DTD SVG 1.1//EN" "http://www.w3.org/Graphics/SVG/1.1/DTD/svg11.dtd">
<svg version="1.1" id="Layer_1" xmlns="http://www.w3.org/2000/svg" xmlns:xlink="http://www.w3.org/1999/xlink" x="0px" y="0px"
	 width="118.406px" height="106.774px" viewBox="0 0 118.406 106.774" enable-background="new 0 0 118.406 106.774"
	 xml:space="preserve">
<g>
	<defs>
		<rect id="SVGID_1_" width="118.406" height="106.774"/>
	</defs>
	<clipPath id="SVGID_2_">
		<use xlink:href="#SVGID_1_"  overflow="visible"/>
	</clipPath>
	<path clip-path="url(#SVGID_2_)" d="M35.149,36.538c3.595-6.11,8.446-11.79,14.012-16.189c7.031-5.556,15.531-7.033,24.331-5.637
		c18.178,2.885,31.871,21.504,30.691,39.638c-1.236,19.028-20.443,33.497-37.772,37.268c-17.677,3.845-36.863-3.595-46.124-19.392
		c-5.204-8.875-7.501-19.968-5.407-30.118c2.259-10.956,9.101-20.006,16.139-28.397c5.824-6.945-4.152-17.022-10.022-10.022
		C13.069,13.142,5.508,23.092,2.018,35.123c-3.516,12.12-2.284,25.396,2.501,36.981c9.419,22.805,33.143,36.809,57.699,34.402
		c23.806-2.333,48.474-19.154,54.749-43.117c6.29-24.02-8.739-51.122-31.56-60.029C73.293-1.369,57.772-1.408,46.336,5.184
		c-9.608,5.54-17.831,14.695-23.425,24.201C18.275,37.263,30.521,44.403,35.149,36.538"/>
</g>
</svg>
