<?xml version="1.0" encoding="utf-8"?>
<!-- Generator: Adobe Illustrator 16.0.0, SVG Export Plug-In . SVG Version: 6.00 Build 0)  -->
<!DOCTYPE svg PUBLIC "-//W3C//DTD SVG 1.1//EN" "http://www.w3.org/Graphics/SVG/1.1/DTD/svg11.dtd">
<svg version="1.1" id="Layer_1" xmlns="http://www.w3.org/2000/svg" xmlns:xlink="http://www.w3.org/1999/xlink" x="0px" y="0px"
	 width="108.41px" height="98.5px" viewBox="0 0 108.41 98.5" enable-background="new 0 0 108.41 98.5" xml:space="preserve">
<g>
	<defs>
		<rect id="SVGID_1_" width="108.41" height="98.5"/>
	</defs>
	<clipPath id="SVGID_2_">
		<use xlink:href="#SVGID_1_"  overflow="visible"/>
	</clipPath>
	<line clip-path="url(#SVGID_2_)" fill="none" stroke="#FFFFFF" stroke-width="4" x1="53.286" y1="4.428" x2="53.286" y2="0"/>
</g>
<line fill="none" stroke="#FFFFFF" stroke-width="4" x1="53.286" y1="81.095" x2="53.286" y2="41.761"/>
<g>
	<defs>
		<rect id="SVGID_3_" width="108.41" height="98.5"/>
	</defs>
	<clipPath id="SVGID_4_">
		<use xlink:href="#SVGID_3_"  overflow="visible"/>
	</clipPath>
	<path clip-path="url(#SVGID_4_)" fill="none" stroke="#FFFFFF" stroke-width="4" d="M65.286,90.5c0,3.314-2.688,6-6,6
		c-3.314,0-6-2.686-6-6v-5.2"/>
	<path clip-path="url(#SVGID_4_)" fill="none" stroke="#FFFFFF" stroke-width="4" d="M8.098,44.096c2.54,0,4.729,1.417,5.885,3.491
		c2.285-2.93,5.837-4.82,9.839-4.82c5.046,0,9.378,3.003,11.344,7.315c4.578-4.521,10.864-7.315,17.807-7.315
		c0.205,0,0.4,0.025,0.605,0.029c0.37-0.015,0.739-0.029,1.114-0.029c6.94,0,13.225,2.794,17.804,7.311
		c1.966-4.311,6.302-7.311,11.348-7.311c4,0,7.553,1.89,9.835,4.82c1.158-2.074,3.345-3.491,5.888-3.491
		c2.803,0,5.206,1.705,6.234,4.131c0.023,0.006,0.047,0.01,0.068,0.014C100.966,24.024,79.56,5.792,53.896,5.792
		c-25.601,0-46.962,18.138-51.938,42.262C3.025,45.724,5.367,44.096,8.098,44.096z"/>
	<path clip-path="url(#SVGID_4_)" fill="none" stroke="#FFFFFF" stroke-width="4" d="M23.821,42.767
		c5.047,0,9.379,3.003,11.345,7.315c4.578-4.521,10.863-7.315,17.806-7.315c0.205,0,0.401,0.025,0.606,0.029
		c0.369-0.015,0.739-0.029,1.113-0.029c6.94,0,13.226,2.794,17.804,7.311c1.966-4.311,6.302-7.311,11.347-7.311
		c4,0,7.554,1.891,9.836,4.82c0.028-0.05,0.065-0.096,0.095-0.146C89.76,23.626,73.437,5.792,53.896,5.792
		c-19.58,0-35.929,17.899-39.901,41.783C16.279,44.653,19.824,42.767,23.821,42.767z"/>
	<path clip-path="url(#SVGID_4_)" fill="none" stroke="#FFFFFF" stroke-width="4" d="M72.556,49.972
		c-1.446-24.028-8.649-42.568-17.5-44.069c-0.002,0-0.003,0-0.004-0.001c-0.166-0.028-0.332-0.052-0.499-0.068
		C54.357,5.813,54.16,5.8,53.963,5.797c-0.023-0.001-0.045-0.005-0.067-0.005c-0.003,0-0.005,0.001-0.008,0.001
		c-0.006,0-0.012-0.001-0.018-0.001c-0.048,0-0.096,0.008-0.145,0.01c-0.167,0.005-0.334,0.013-0.498,0.031
		c-9.086,0.853-16.543,19.645-18.016,44.139c0.019,0.036,0.045,0.068,0.061,0.105c4.562-4.502,10.822-7.292,17.735-7.309
		c0.192,0.002,1.559,0.002,1.752,0c6.913,0.017,13.173,2.807,17.734,7.309C72.511,50.04,72.536,50.008,72.556,49.972z"/>
</g>
</svg>
